<?xml version="1.0" ?><svg viewBox="0 0 28.87 28.87" xmlns="http://www.w3.org/2000/svg"><defs><style>.cls-1{fill:#4c76be;}.cls-2{fill:#fff;fill-rule:evenodd;}</style></defs><title/><g data-name="Layer 2" id="Layer_2"><g data-name="Layer 1" id="Layer_1-2"><rect class="cls-1" height="28.87" rx="6.48" ry="6.48" width="28.87"/><path class="cls-2" d="M16.86,9.29c.48,0,1,0,1.45,0h.2V6.76c-.26,0-.53-.06-.8-.08-.5,0-1,0-1.49,0a3.65,3.65,0,0,0-2.1.65,3.15,3.15,0,0,0-1.27,2.1,7.39,7.39,0,0,0-.09,1.08c0,.57,0,1.13,0,1.7v.21H10.35v2.81h2.4v7.07h2.93V15.22h2.39l.37-2.83H15.66s0-1.39,0-2C15.71,9.56,16.2,9.31,16.86,9.29Z"/></g></g></svg>